
        <svg xmlns="http://www.w3.org/2000/svg" xmlns:xlink="http://www.w3.org/1999/xlink" version="1.1" width="100%" height="100%" viewBox="0 0 3222.222222222222 2026.3658994230275">
			
			<g transform="scale(11.11111111111111) translate(10, 10)">
				<defs id="SvgjsDefs1981"><style>/
@-webkit-keyframes animate-svg-fill-1 {
  0% {
    fill: transparent;
  }

  100% {
    fill: rgb(144, 55, 73);
  }
}

@keyframes animate-svg-fill-1 {
  0% {
    fill: transparent;
  }

  100% {
    fill: rgb(144, 55, 73);
  }
}

.svg-elem-1 {
  -webkit-animation: animate-svg-fill-1 0.7s cubic-bezier(0.6, 0.04, 0.98, 0.335) 0.8s both;
          animation: animate-svg-fill-1 0.7s cubic-bezier(0.6, 0.04, 0.98, 0.335) 0.8s both;
}

@-webkit-keyframes animate-svg-fill-2 {
  0% {
    fill: transparent;
  }

  100% {
    fill: rgb(144, 55, 73);
  }
}

@keyframes animate-svg-fill-2 {
  0% {
    fill: transparent;
  }

  100% {
    fill: rgb(144, 55, 73);
  }
}

.svg-elem-2 {
  -webkit-animation: animate-svg-fill-2 0.7s cubic-bezier(0.6, 0.04, 0.98, 0.335) 0.9s both;
          animation: animate-svg-fill-2 0.7s cubic-bezier(0.6, 0.04, 0.98, 0.335) 0.9s both;
}

@-webkit-keyframes animate-svg-fill-3 {
  0% {
    fill: transparent;
  }

  100% {
    fill: rgb(144, 55, 73);
  }
}

@keyframes animate-svg-fill-3 {
  0% {
    fill: transparent;
  }

  100% {
    fill: rgb(144, 55, 73);
  }
}

.svg-elem-3 {
  -webkit-animation: animate-svg-fill-3 0.7s cubic-bezier(0.6, 0.04, 0.98, 0.335) 1s both;
          animation: animate-svg-fill-3 0.7s cubic-bezier(0.6, 0.04, 0.98, 0.335) 1s both;
}

@-webkit-keyframes animate-svg-fill-4 {
  0% {
    fill: transparent;
  }

  100% {
    fill: rgb(144, 55, 73);
  }
}

@keyframes animate-svg-fill-4 {
  0% {
    fill: transparent;
  }

  100% {
    fill: rgb(144, 55, 73);
  }
}

.svg-elem-4 {
  -webkit-animation: animate-svg-fill-4 0.7s cubic-bezier(0.6, 0.04, 0.98, 0.335) 1.1s both;
          animation: animate-svg-fill-4 0.7s cubic-bezier(0.6, 0.04, 0.98, 0.335) 1.1s both;
}

@-webkit-keyframes animate-svg-fill-5 {
  0% {
    fill: transparent;
  }

  100% {
    fill: rgb(144, 55, 73);
  }
}

@keyframes animate-svg-fill-5 {
  0% {
    fill: transparent;
  }

  100% {
    fill: rgb(144, 55, 73);
  }
}

.svg-elem-5 {
  -webkit-animation: animate-svg-fill-5 0.7s cubic-bezier(0.6, 0.04, 0.98, 0.335) 1.2000000000000002s both;
          animation: animate-svg-fill-5 0.7s cubic-bezier(0.6, 0.04, 0.98, 0.335) 1.2000000000000002s both;
}

@-webkit-keyframes animate-svg-fill-6 {
  0% {
    fill: transparent;
  }

  100% {
    fill: rgb(144, 55, 73);
  }
}

@keyframes animate-svg-fill-6 {
  0% {
    fill: transparent;
  }

  100% {
    fill: rgb(144, 55, 73);
  }
}

.svg-elem-6 {
  -webkit-animation: animate-svg-fill-6 0.7s cubic-bezier(0.6, 0.04, 0.98, 0.335) 1.3s both;
          animation: animate-svg-fill-6 0.7s cubic-bezier(0.6, 0.04, 0.98, 0.335) 1.3s both;
}

@-webkit-keyframes animate-svg-fill-7 {
  0% {
    fill: transparent;
  }

  100% {
    fill: rgb(144, 55, 73);
  }
}

@keyframes animate-svg-fill-7 {
  0% {
    fill: transparent;
  }

  100% {
    fill: rgb(144, 55, 73);
  }
}

.svg-elem-7 {
  -webkit-animation: animate-svg-fill-7 0.7s cubic-bezier(0.6, 0.04, 0.98, 0.335) 1.4000000000000001s both;
          animation: animate-svg-fill-7 0.7s cubic-bezier(0.6, 0.04, 0.98, 0.335) 1.4000000000000001s both;
}

@-webkit-keyframes animate-svg-fill-8 {
  0% {
    fill: transparent;
  }

  100% {
    fill: rgb(144, 55, 73);
  }
}

@keyframes animate-svg-fill-8 {
  0% {
    fill: transparent;
  }

  100% {
    fill: rgb(144, 55, 73);
  }
}

.svg-elem-8 {
  -webkit-animation: animate-svg-fill-8 0.7s cubic-bezier(0.6, 0.04, 0.98, 0.335) 1.5s both;
          animation: animate-svg-fill-8 0.7s cubic-bezier(0.6, 0.04, 0.98, 0.335) 1.5s both;
}

@-webkit-keyframes animate-svg-fill-9 {
  0% {
    fill: transparent;
  }

  100% {
    fill: rgb(144, 55, 73);
  }
}

@keyframes animate-svg-fill-9 {
  0% {
    fill: transparent;
  }

  100% {
    fill: rgb(144, 55, 73);
  }
}

.svg-elem-9 {
  -webkit-animation: animate-svg-fill-9 0.7s cubic-bezier(0.6, 0.04, 0.98, 0.335) 1.6s both;
          animation: animate-svg-fill-9 0.7s cubic-bezier(0.6, 0.04, 0.98, 0.335) 1.6s both;
}

@-webkit-keyframes animate-svg-fill-10 {
  0% {
    fill: transparent;
  }

  100% {
    fill: rgb(144, 55, 73);
  }
}

@keyframes animate-svg-fill-10 {
  0% {
    fill: transparent;
  }

  100% {
    fill: rgb(144, 55, 73);
  }
}

.svg-elem-10 {
  -webkit-animation: animate-svg-fill-10 0.7s cubic-bezier(0.6, 0.04, 0.98, 0.335) 1.7000000000000002s both;
          animation: animate-svg-fill-10 0.7s cubic-bezier(0.6, 0.04, 0.98, 0.335) 1.7000000000000002s both;
}

@-webkit-keyframes animate-svg-fill-11 {
  0% {
    fill: transparent;
  }

  100% {
    fill: rgb(144, 55, 73);
  }
}

@keyframes animate-svg-fill-11 {
  0% {
    fill: transparent;
  }

  100% {
    fill: rgb(144, 55, 73);
  }
}

.svg-elem-11 {
  -webkit-animation: animate-svg-fill-11 0.7s cubic-bezier(0.6, 0.04, 0.98, 0.335) 1.8s both;
          animation: animate-svg-fill-11 0.7s cubic-bezier(0.6, 0.04, 0.98, 0.335) 1.8s both;
}

@-webkit-keyframes animate-svg-fill-12 {
  0% {
    fill: transparent;
  }

  100% {
    fill: rgb(144, 55, 73);
  }
}

@keyframes animate-svg-fill-12 {
  0% {
    fill: transparent;
  }

  100% {
    fill: rgb(144, 55, 73);
  }
}

.svg-elem-12 {
  -webkit-animation: animate-svg-fill-12 0.7s cubic-bezier(0.6, 0.04, 0.98, 0.335) 1.9000000000000001s both;
          animation: animate-svg-fill-12 0.7s cubic-bezier(0.6, 0.04, 0.98, 0.335) 1.9000000000000001s both;
}

@-webkit-keyframes animate-svg-fill-13 {
  0% {
    fill: transparent;
  }

  100% {
    fill: rgb(144, 55, 73);
  }
}

@keyframes animate-svg-fill-13 {
  0% {
    fill: transparent;
  }

  100% {
    fill: rgb(144, 55, 73);
  }
}

.svg-elem-13 {
  -webkit-animation: animate-svg-fill-13 0.7s cubic-bezier(0.6, 0.04, 0.98, 0.335) 2s both;
          animation: animate-svg-fill-13 0.7s cubic-bezier(0.6, 0.04, 0.98, 0.335) 2s both;
}

@-webkit-keyframes animate-svg-fill-14 {
  0% {
    fill: transparent;
  }

  100% {
    fill: rgb(144, 55, 73);
  }
}

@keyframes animate-svg-fill-14 {
  0% {
    fill: transparent;
  }

  100% {
    fill: rgb(144, 55, 73);
  }
}

.svg-elem-14 {
  -webkit-animation: animate-svg-fill-14 0.7s cubic-bezier(0.6, 0.04, 0.98, 0.335) 2.1s both;
          animation: animate-svg-fill-14 0.7s cubic-bezier(0.6, 0.04, 0.98, 0.335) 2.1s both;
}

@-webkit-keyframes animate-svg-fill-15 {
  0% {
    fill: transparent;
  }

  100% {
    fill: rgb(232, 69, 69);
  }
}

@keyframes animate-svg-fill-15 {
  0% {
    fill: transparent;
  }

  100% {
    fill: rgb(232, 69, 69);
  }
}

.svg-elem-15 {
  -webkit-animation: animate-svg-fill-15 0.7s cubic-bezier(0.6, 0.04, 0.98, 0.335) 2.2s both;
          animation: animate-svg-fill-15 0.7s cubic-bezier(0.6, 0.04, 0.98, 0.335) 2.2s both;
}

@-webkit-keyframes animate-svg-fill-16 {
  0% {
    fill: transparent;
  }

  100% {
    fill: rgb(144, 55, 73);
  }
}

@keyframes animate-svg-fill-16 {
  0% {
    fill: transparent;
  }

  100% {
    fill: rgb(144, 55, 73);
  }
}

.svg-elem-16 {
  -webkit-animation: animate-svg-fill-16 0.7s cubic-bezier(0.6, 0.04, 0.98, 0.335) 2.3s both;
          animation: animate-svg-fill-16 0.7s cubic-bezier(0.6, 0.04, 0.98, 0.335) 2.3s both;
}
</style></defs><g id="SvgjsG1982" featurekey="symbolFeature-0" transform="matrix(0.23751925302200882,0,0,0.23751925302200882,74.41104023266651,-6.911809900514839)" fill="#903749"><g xmlns="http://www.w3.org/2000/svg"><g><g><g><path d="M237.6,225.9H16.9c-3.3,0-6-2.7-6-6V35.1c0-3.3,2.7-6,6-6h220.7c3.3,0,6,2.7,6,6v184.8      C243.6,223.2,241,225.9,237.6,225.9z M22.9,213.9h208.7V41.1H22.9V213.9z" class="svg-elem-1"></path></g><g><path d="M237.6,84.2H16.9c-3.3,0-6-2.7-6-6s2.7-6,6-6h220.7c3.3,0,6,2.7,6,6S241,84.2,237.6,84.2z" class="svg-elem-2"></path></g><g><path d="M47.2,69.7c-7.2,0-13-5.8-13-13c0-7.2,5.8-13,13-13c7.2,0,13,5.8,13,13C60.1,63.9,54.3,69.7,47.2,69.7z M47.2,55.7      c-0.6,0-1,0.4-1,1c0,0.5,0.4,1,1,1c0.5,0,1-0.5,1-1C48.1,56.2,47.7,55.7,47.2,55.7z" class="svg-elem-3"></path></g><g><path d="M94.1,69.7c-7.2,0-13-5.8-13-13c0-7.2,5.8-13,13-13c7.2,0,13,5.8,13,13C107.1,63.9,101.3,69.7,94.1,69.7z M94.1,55.7      c-0.5,0-1,0.4-1,1c0,0.5,0.5,1,1,1c0.6,0,1-0.5,1-1C95.1,56.2,94.6,55.7,94.1,55.7z" class="svg-elem-4"></path></g><g><path d="M141.1,69.7c-7.2,0-13-5.8-13-13c0-7.2,5.8-13,13-13c7.2,0,13,5.8,13,13C154.1,63.9,148.2,69.7,141.1,69.7z M141.1,55.7      c-0.5,0-1,0.4-1,1c0,0.5,0.4,1,1,1c0.6,0,1-0.5,1-1C142.1,56.2,141.6,55.7,141.1,55.7z" class="svg-elem-5"></path></g><g><path d="M396.8,483.8h-27c-3.3,0-6-2.7-6-6v-20.2c-12.1-2.1-23.8-6.5-34.3-12.9l-15.2,15.2c-1.1,1.1-2.7,1.8-4.2,1.8      c0,0,0,0,0,0c-1.6,0-3.1-0.6-4.2-1.8l-19.1-19.1c-2.3-2.3-2.3-6.1,0-8.5L301,418c-7.1-10-12.2-21.4-15.1-33.4h-21.4      c-3.3,0-6-2.7-6-6v-27c0-3.3,2.7-6,6-6h20.2c2.1-12.2,6.5-23.8,12.9-34.3l-15.2-15.2c-2.3-2.3-2.3-6.1,0-8.5l19.1-19.1      c1.1-1.1,2.7-1.8,4.2-1.8c0,0,0,0,0,0c1.6,0,3.1,0.6,4.2,1.8l14.3,14.3c10.1-7.1,21.5-12.3,33.4-15.1v-21.4c0-3.3,2.7-6,6-6h27      c3.3,0,6,2.7,6,6v20.2c12.1,2.1,23.8,6.5,34.3,12.9l15.2-15.2c1.1-1.1,2.7-1.8,4.2-1.8c0,0,0,0,0,0c1.6,0,3.1,0.6,4.2,1.8      l19.1,19.1c2.3,2.3,2.3,6.1,0,8.5l-14.3,14.3c7.1,10,12.2,21.4,15.1,33.4H496c3.3,0,6,2.7,6,6v27c0,3.3-2.7,6-6,6h-20.2      c-2.1,12.1-6.5,23.8-12.9,34.3L478,428c1.1,1.1,1.8,2.7,1.8,4.2s-0.6,3.1-1.8,4.2l-19.1,19.1c-1.1,1.1-2.7,1.8-4.2,1.8      c0,0,0,0,0,0c-1.6,0-3.1-0.6-4.2-1.8l-14.3-14.3c-10,7.1-21.4,12.3-33.4,15.1v21.4C402.8,481.2,400.1,483.8,396.8,483.8z       M375.7,471.8h15v-20.3c0-2.9,2.1-5.4,4.9-5.9c13.6-2.5,26.5-8.4,37.3-17c2.4-1.9,5.8-1.7,8,0.5l13.7,13.7l10.6-10.6l-14.4-14.3      c-2.1-2-2.3-5.3-0.7-7.6c7.9-11.5,12.9-24.7,14.4-38.4c0.3-3,2.9-5.3,6-5.3H490v-15h-20.3c-2.9,0-5.4-2.1-5.9-4.9      c-2.5-13.6-8.4-26.5-17-37.3c-1.9-2.4-1.7-5.8,0.4-8l13.7-13.8L450.4,277L436,291.4c-2,2-5.3,2.3-7.6,0.7      c-11.3-7.8-24.6-12.8-38.3-14.4c-3-0.4-5.3-2.9-5.3-6l0-19.4h-15v20.3c0,2.9-2.1,5.4-4.9,5.9c-13.5,2.5-26.4,8.4-37.3,17      c-2.4,1.9-5.8,1.7-8-0.5l-13.8-13.8l-10.6,10.6l14.4,14.4c2.1,2.1,2.3,5.3,0.7,7.7c-7.8,11.3-12.8,24.5-14.4,38.3      c-0.3,3-2.9,5.3-6,5.3h-19.4v15h20.3c2.9,0,5.4,2.1,5.9,4.9c2.5,13.6,8.4,26.5,17,37.3c1.9,2.4,1.7,5.8-0.5,8l-13.7,13.7      l10.6,10.6l14.4-14.4c2-2,5.3-2.3,7.7-0.7c11.4,7.9,24.6,12.8,38.3,14.4c3,0.3,5.3,2.9,5.3,6V471.8z" class="svg-elem-6"></path></g><g><path d="M380.2,424.5c-34.4,0-62.5-28-62.5-62.4s28-62.4,62.5-62.4c34.5,0,62.5,28,62.5,62.4S414.7,424.5,380.2,424.5z       M380.2,311.6c-27.8,0-50.5,22.6-50.5,50.4c0,27.8,22.6,50.4,50.5,50.4c27.8,0,50.5-22.6,50.5-50.4      C430.7,334.3,408,311.6,380.2,311.6z" class="svg-elem-7"></path></g><g><path d="M103.9,178.2c-1.5,0-3.1-0.6-4.2-1.8l-20.5-20.6c-2.3-2.3-2.3-6.1,0-8.5l20.5-20.5c2.3-2.3,6.1-2.3,8.5,0s2.3,6.1,0,8.5      l-16.3,16.3l16.3,16.3c2.3,2.3,2.3,6.1,0,8.5C106.9,177.7,105.4,178.2,103.9,178.2z" class="svg-elem-8"></path></g><g><path d="M150.7,178.2c-1.5,0-3.1-0.6-4.2-1.8c-2.3-2.3-2.3-6.1,0-8.5l16.3-16.3l-16.3-16.3c-2.3-2.3-2.3-6.1,0-8.5      c2.3-2.3,6.1-2.3,8.5,0l20.5,20.5c2.3,2.3,2.3,6.1,0,8.5l-20.5,20.6C153.7,177.6,152.2,178.2,150.7,178.2z" class="svg-elem-9"></path></g><g><path d="M114.4,189.8c-0.7,0-1.5-0.1-2.2-0.4c-3.1-1.2-4.6-4.7-3.4-7.8l27.3-69.4c1.2-3.1,4.7-4.6,7.8-3.4      c3.1,1.2,4.6,4.7,3.4,7.8L120,186C119.1,188.3,116.8,189.8,114.4,189.8z" class="svg-elem-10"></path></g><g><path d="M376.8,235c-3.3,0-6-2.7-6-6V119.5H260.8c-3.3,0-6-2.7-6-6s2.7-6,6-6h115.9c3.3,0,6,2.7,6,6V229      C382.8,232.3,380.1,235,376.8,235z" class="svg-elem-11"></path></g><g><path d="M376.8,235c-1.8,0-3.4-0.8-4.6-2.1l-20.1-23.7c-2.1-2.5-1.8-6.3,0.7-8.5c2.5-2.1,6.3-1.8,8.5,0.7l15.5,18.3l15.5-18.3      c2.1-2.5,5.9-2.8,8.5-0.7c2.5,2.1,2.8,5.9,0.7,8.5l-20.1,23.7C380.2,234.2,378.5,235,376.8,235C376.8,235,376.8,235,376.8,235z" class="svg-elem-12"></path></g><g><path d="M239.4,368.2H123.4c-3.3,0-6-2.7-6-6V246.7c0-3.3,2.7-6,6-6s6,2.7,6,6v109.5h109.9c3.3,0,6,2.7,6,6      S242.7,368.2,239.4,368.2z" class="svg-elem-13"></path></g><g><path d="M143.6,276.4c-1.7,0-3.4-0.7-4.6-2.1L123.5,256l-15.5,18.3c-2.1,2.5-5.9,2.8-8.5,0.7c-2.5-2.1-2.8-5.9-0.7-8.5      l20.1-23.7c1.1-1.3,2.8-2.1,4.6-2.1c0,0,0,0,0,0c1.8,0,3.4,0.8,4.6,2.1l20.1,23.7c2.1,2.5,1.8,6.3-0.7,8.5      C146.3,276,144.9,276.4,143.6,276.4z" class="svg-elem-14"></path></g></g></g></g></g><g id="SvgjsG1983" featurekey="nameFeature-0" transform="matrix(0.5512138921930057,0,0,0.5512138921930057,-0.44097200740790865,122.88473627899596)" fill="#e84545"><path d="M13.72 13.32 l-1.64 -3.68 l4.8 0 l14.36 30.36 l-4.88 0 l-1.96 -4.36 l-9.08 0 q-2.56 0 -4.6 0.48 q-1.8 0.44 -3 1.16 q-1.08 0.64 -1.44 1.32 l-0.76 1.4 l-4.72 0 z M16.92 31.240000000000002 l5.52 0 l-6.52 -12.6 l-6.6 14.28 q0.88 -0.76 2.68 -1.2 q2.04 -0.48 4.92 -0.48 z M38.524 14.36 l-3.48 -4.2 l5.64 0 l19.16 22.8 l0 -22.8 l4.4 0 l0 29.84 l-4.32 0 l-17.12 -20.52 l0 20.52 l-4.28 0 l0 -25.64 z M95.72800000000001 40 l-24.28 0 l0 -4.4 l16.8 -21.04 l-15.88 0 l0 -4.4 l21.88 0 l0 4.24 l-17.36 21.24 l18.84 0 l0 4.36 z M112.25200000000001 13.32 l-1.64 -3.68 l4.8 0 l14.36 30.36 l-4.88 0 l-1.96 -4.36 l-9.08 0 q-2.56 0 -4.6 0.48 q-1.8 0.44 -3 1.16 q-1.08 0.64 -1.44 1.32 l-0.76 1.4 l-4.72 0 z M115.45200000000001 31.240000000000002 l5.52 0 l-6.52 -12.6 l-6.6 14.28 q0.88 -0.76 2.68 -1.2 q2.04 -0.48 4.92 -0.48 z M157.096 40 l-20.92 0 l0 -29.84 l4.36 0 l0 25.48 l16.56 0 l0 4.36 z M179.06400000000002 26.8 l0 13.2 l-4.32 0 l0 -29.84 l4.32 0 l0 12.24 q1.6 -0.8 3.8 -0.8 q0.8 0 3.88 0.36 q4.32 0.52 5.84 0.52 q2.32 0 4.04 -0.76 l0 -11.56 l4.36 0 l0 29.84 l-4.36 0 l0 -13.88 q-1.72 0.76 -4.04 0.76 q-1.52 0 -5.84 -0.52 q-3.08 -0.36 -3.88 -0.36 q-2.2 0 -3.8 0.8 z M223.58800000000002 40.68 q-4.2 0 -7.22 -1.46 t-4.6 -4.22 t-1.58 -6.6 l0 -18.24 l4.32 0 l0 18.24 q0 3.84 2.36 5.88 t6.72 2.04 t6.72 -2.04 t2.36 -5.88 l0 -18.24 l4.32 0 l0 18.24 q0 3.84 -1.58 6.6 t-4.6 4.22 t-7.22 1.46 z M269.39200000000005 30.92 q0 2.92 -1.76 5.2 q-1.72 2.16 -4.74 3.36 t-6.82 1.2 q-3.48 0 -6.76 -1.62 t-5.52 -4.5 l3.12 -2.92 q3.88 4.68 9.16 4.68 q2.32 0 4.24 -0.56 q2.12 -0.64 3.28 -1.8 q1.32 -1.28 1.32 -3.04 q0 -2.12 -1.32 -3.2 q-1.12 -0.92 -3.32 -1.2 q-1.28 -0.16 -4.2 -0.16 q-5.36 0 -8.18 -1.96 t-2.82 -5.76 q0 -2.4 1.42 -4.56 t3.9 -3.44 q2.56 -1.36 5.68 -1.36 q3.52 0 6.36 1.08 q3.04 1.16 5.64 3.64 l-2.72 3.2 q-2.44 -1.96 -4.44 -2.74 t-4.84 -0.78 q-1.64 0 -3.06 0.68 t-2.26 1.82 t-0.84 2.42 q0 3.44 6.36 3.44 q5.08 0 8.04 1.04 q2.8 1 4 3.04 q1.08 1.8 1.08 4.8 z M285.91600000000005 13.32 l-1.64 -3.68 l4.8 0 l14.36 30.36 l-4.88 0 l-1.96 -4.36 l-9.08 0 q-2.56 0 -4.6 0.48 q-1.8 0.44 -3 1.16 q-1.08 0.64 -1.44 1.32 l-0.76 1.4 l-4.72 0 z M289.11600000000004 31.240000000000002 l5.52 0 l-6.52 -12.6 l-6.6 14.28 q0.88 -0.76 2.68 -1.2 q2.04 -0.48 4.92 -0.48 z M314.12000000000006 40 l-4.28 0 l0 -29.84 l4.28 0 l0 29.84 z M324.60400000000004 14.36 l-3.48 -4.2 l5.64 0 l19.16 22.8 l0 -22.8 l4.4 0 l0 29.84 l-4.32 0 l-17.12 -20.52 l0 20.52 l-4.28 0 l0 -25.64 z M380.8920000000001 13.32 l-1.64 -3.68 l4.8 0 l14.36 30.36 l-4.88 0 l-1.96 -4.36 l-9.08 0 q-2.56 0 -4.6 0.48 q-1.8 0.44 -3 1.16 q-1.08 0.64 -1.44 1.32 l-0.76 1.4 l-4.72 0 z M384.0920000000001 31.240000000000002 l5.52 0 l-6.52 -12.6 l-6.6 14.28 q0.88 -0.76 2.68 -1.2 q2.04 -0.48 4.92 -0.48 z M409.1360000000001 14.559999999999999 l0 9.12 q1.24 -0.72 2.8 -1 q1.16 -0.2 2.88 -0.2 l5.12 0 q2.08 0 3.26 -1.04 t1.18 -3.08 q0 -3.8 -4.44 -3.8 l-10.8 0 z M409.1360000000001 28.119999999999997 l0 7.52 l11.24 0 q1.32 0 2.52 -0.48 q1.32 -0.48 2.08 -1.4 q0.88 -1.08 0.88 -2.48 q0 -2.4 -1.88 -3.48 q-1.48 -0.88 -4.04 -0.88 l-5.12 0 q-3.44 0 -5.68 1.2 z M430.17600000000004 31.84 q0 2.8 -1.56 4.76 q-1.36 1.72 -3.84 2.6 q-2.2 0.8 -4.84 0.8 l-15.12 0 l0 -29.84 l15.12 0 q2.56 0 4.54 0.96 t3.1 2.76 q1.16 1.88 1.16 4.44 q0 1.96 -0.7 3.5 t-1.98 2.38 q1.72 0.8 2.84 2.64 q1.28 2.12 1.28 5 z M442.4600000000001 40 l-4.28 0 l0 -29.84 l4.28 0 l0 29.84 z M458.0240000000001 14.559999999999999 l0 21.08 l6.76 0 q2.8 0 5.04 -1.44 q2.12 -1.4 3.32 -3.76 t1.2 -5.16 q0 -2.92 -1.14 -5.36 t-3.26 -3.88 q-2.28 -1.48 -5.24 -1.48 l-6.68 0 z M451.3840000000001 14.559999999999999 l-1.92 -4.4 l15.2 0 q3.96 0 7.24 2.04 q3.16 1.96 5 5.36 t1.84 7.4 q0 3 -1.18 5.94 t-3.26 5.14 q-2 2.16 -4.28 3.08 q-2.2 0.88 -5.24 0.88 l-11.04 0 l0 -25.44 l-2.36 0 z M490.6280000000001 40 l-4.28 0 l0 -29.84 l4.28 0 l0 29.84 z" class="svg-elem-15"></path></g><g id="SvgjsG1984" featurekey="sloganFeature-0" transform="matrix(0.4696132992581783,0,0,0.4696132992581783,65.96685083120363,152.82099547378755)" fill="#903749"><path d="M4.38 14.02 l0 3.8 l9.2 0 l0 2.18 l-11.38 0 l0 -14.92 l10.5 0 l0 2.2 l-8.32 0 l0 4.52 q0.62 -0.36 1.38 -0.48 q0.56 -0.1 1.44 -0.1 l3.26 0 l0 2.22 l-3.26 0 q-0.82 0 -1.44 0.1 q-0.76 0.14 -1.38 0.48 z M21.740000000000002 6.66 l-0.82 -1.84 l2.4 0 l7.18 15.18 l-2.44 0 l-0.98 -2.18 l-4.54 0 q-1.28 0 -2.3 0.24 q-0.9 0.22 -1.5 0.58 q-0.54 0.32 -0.72 0.66 l-0.38 0.7 l-2.36 0 z M23.340000000000003 15.620000000000001 l2.76 0 l-3.26 -6.3 l-3.3 7.14 q0.44 -0.38 1.34 -0.6 q1.02 -0.24 2.46 -0.24 z M44.400000000000006 7.279999999999999 l-5.26 0 l0 12.72 l-2.12 0 l0 -12.72 l-5.32 0 l0 -2.2 l12.7 0 l0 2.2 z M64.22 15.46 q0 1.46 -0.88 2.6 q-0.86 1.08 -2.37 1.68 t-3.41 0.6 q-1.74 0 -3.38 -0.81 t-2.76 -2.25 l1.56 -1.46 q1.94 2.34 4.58 2.34 q1.16 0 2.12 -0.28 q1.06 -0.32 1.64 -0.9 q0.66 -0.64 0.66 -1.52 q0 -1.06 -0.66 -1.6 q-0.56 -0.46 -1.66 -0.6 q-0.64 -0.08 -2.1 -0.08 q-2.68 0 -4.09 -0.98 t-1.41 -2.88 q0 -1.2 0.71 -2.28 t1.95 -1.72 q1.28 -0.68 2.84 -0.68 q1.76 0 3.18 0.54 q1.52 0.58 2.82 1.82 l-1.36 1.6 q-1.22 -0.98 -2.22 -1.37 t-2.42 -0.39 q-0.82 0 -1.53 0.34 t-1.13 0.91 t-0.42 1.21 q0 1.72 3.18 1.72 q2.54 0 4.02 0.52 q1.4 0.5 2 1.52 q0.54 0.9 0.54 2.4 z M77.88 20 l-10.46 0 l0 -14.92 l2.18 0 l0 12.74 l8.28 0 l0 2.18 z M82.66 14.02 l0 3.8 l9.2 0 l0 2.18 l-11.38 0 l0 -14.92 l10.5 0 l0 2.2 l-8.32 0 l0 4.52 q0.62 -0.36 1.38 -0.48 q0.56 -0.1 1.44 -0.1 l3.26 0 l0 2.22 l-3.26 0 q-0.82 0 -1.44 0.1 q-0.76 0.14 -1.38 0.48 z M97.53999999999999 14.02 l0 3.8 l9.2 0 l0 2.18 l-11.38 0 l0 -14.92 l10.5 0 l0 2.2 l-8.32 0 l0 4.52 q0.62 -0.36 1.38 -0.48 q0.56 -0.1 1.44 -0.1 l3.26 0 l0 2.22 l-3.26 0 q-0.82 0 -1.44 0.1 q-0.76 0.14 -1.38 0.48 z M115.25999999999999 11.46 l2.64 0 q2.2 0 2.2 -2.12 q0 -1.1 -0.55 -1.59 t-1.65 -0.49 l-5.48 0 l0 4.8 q0.62 -0.36 1.4 -0.5 q0.58 -0.1 1.44 -0.1 z M112.41999999999999 20 l-2.18 0 l0 -14.92 l7.66 0 q1.32 0 2.3 0.51 t1.52 1.47 t0.54 2.27 t-0.54 2.29 t-1.53 1.51 t-2.29 0.53 l-2.64 0 q-1.72 0 -2.84 0.6 l0 5.74 z M143.65999999999997 7 l-1.4 1.64 q-0.82 -0.84 -1.96 -1.32 t-2.4 -0.48 q-1.64 0 -2.99 0.74 t-2.11 2.02 q-0.78 1.34 -0.78 2.98 q0 1.56 0.84 2.88 q0.8 1.24 2.15 1.97 t2.91 0.73 q1.44 0 2.68 -0.62 t2.06 -1.72 l1.34 1.82 q-1.14 1.28 -2.73 1.99 t-3.37 0.71 q-2.22 0 -4.08 -1.08 q-1.82 -1.04 -2.86 -2.86 q-1.08 -1.86 -1.08 -4.08 q0 -2.14 1.14 -3.94 q1.08 -1.72 2.93 -2.73 t3.97 -1.01 q1.66 0 3.16 0.64 q1.46 0.6 2.58 1.72 z M160.09999999999997 12.440000000000001 q0 -1.6 -0.82 -2.9 q-0.78 -1.26 -2.13 -1.98 t-2.93 -0.72 q-1.64 0 -2.99 0.74 t-2.11 2.02 q-0.78 1.34 -0.78 2.98 q0 1.56 0.84 2.88 q0.8 1.24 2.15 1.97 t2.92 0.73 t2.92 -0.76 t2.13 -2.04 q0.8 -1.34 0.8 -2.92 z M162.25999999999996 12.559999999999999 q0 2.16 -1.12 3.98 q-1.08 1.74 -2.93 2.77 t-3.99 1.03 q-2.22 0 -4.08 -1.08 q-1.82 -1.04 -2.86 -2.86 q-1.08 -1.86 -1.08 -4.08 q0 -2.14 1.14 -3.94 q1.08 -1.72 2.93 -2.73 t3.97 -1.01 q2.18 0 4.04 1.06 q1.82 1.04 2.88 2.82 q1.1 1.86 1.1 4.04 z M168.64 7.279999999999999 l0 10.54 l3.38 0 q1.4 0 2.52 -0.72 q1.06 -0.7 1.66 -1.88 t0.6 -2.58 q0 -1.46 -0.57 -2.68 t-1.63 -1.94 q-1.14 -0.74 -2.62 -0.74 l-3.34 0 z M165.32 7.279999999999999 l-0.96 -2.2 l7.6 0 q1.98 0 3.62 1.02 q1.58 0.98 2.5 2.68 t0.92 3.7 q0 1.5 -0.59 2.97 t-1.63 2.57 q-1 1.08 -2.14 1.54 q-1.1 0.44 -2.62 0.44 l-5.52 0 l0 -12.72 l-1.18 0 z M184.57999999999998 14.02 l0 3.8 l9.2 0 l0 2.18 l-11.38 0 l0 -14.92 l10.5 0 l0 2.2 l-8.32 0 l0 4.52 q0.62 -0.36 1.38 -0.48 q0.56 -0.1 1.44 -0.1 l3.26 0 l0 2.22 l-3.26 0 q-0.82 0 -1.44 0.1 q-0.76 0.14 -1.38 0.48 z M204.87999999999997 7.26 l0 4.96 q0.62 -0.36 1.38 -0.48 q0.56 -0.1 1.44 -0.1 l2.84 0 q1.18 0 1.84 -0.54 q0.7 -0.58 0.7 -1.74 q0 -1.1 -0.74 -1.64 q-0.64 -0.46 -1.8 -0.46 l-5.66 0 z M211.25999999999996 17.64 l-1.82 -3.82 l-1.74 0 q-0.82 0 -1.44 0.1 q-0.76 0.14 -1.38 0.48 l0 5.6 l-2.18 0 l0 -14.92 l7.84 0 q1.38 0 2.44 0.52 t1.64 1.48 q0.62 1.02 0.62 2.4 q0 1.68 -0.9 2.76 t-2.54 1.5 l1.16 2.38 q0.5 0.74 0.78 1.04 q0.34 0.38 0.65 0.51 t0.81 0.13 l0.22 0 l0.48 -0.02 l0 2.22 q-1.16 0 -1.72 -0.08 q-0.94 -0.16 -1.6 -0.62 q-0.78 -0.56 -1.32 -1.66 z M221.67999999999998 14.02 l0 3.8 l9.2 0 l0 2.18 l-11.38 0 l0 -14.92 l10.5 0 l0 2.2 l-8.32 0 l0 4.52 q0.62 -0.36 1.38 -0.48 q0.56 -0.1 1.44 -0.1 l3.26 0 l0 2.22 l-3.26 0 q-0.82 0 -1.44 0.1 q-0.76 0.14 -1.38 0.48 z M239.39999999999998 11.46 l2.64 0 q2.2 0 2.2 -2.12 q0 -1.1 -0.55 -1.59 t-1.65 -0.49 l-5.48 0 l0 4.8 q0.62 -0.36 1.4 -0.5 q0.58 -0.1 1.44 -0.1 z M236.55999999999997 20 l-2.18 0 l0 -14.92 l7.66 0 q1.32 0 2.3 0.51 t1.52 1.47 t0.54 2.27 t-0.54 2.29 t-1.53 1.51 t-2.29 0.53 l-2.64 0 q-1.72 0 -2.84 0.6 l0 5.74 z M251.77999999999997 14.02 l0 3.8 l9.2 0 l0 2.18 l-11.38 0 l0 -14.92 l10.5 0 l0 2.2 l-8.32 0 l0 4.52 q0.62 -0.36 1.38 -0.48 q0.56 -0.1 1.44 -0.1 l3.26 0 l0 2.22 l-3.26 0 q-0.82 0 -1.44 0.1 q-0.76 0.14 -1.38 0.48 z M269.14 6.66 l-0.82 -1.84 l2.4 0 l7.18 15.18 l-2.44 0 l-0.98 -2.18 l-4.54 0 q-1.28 0 -2.3 0.24 q-0.9 0.22 -1.5 0.58 q-0.54 0.32 -0.72 0.66 l-0.38 0.7 l-2.36 0 z M270.73999999999995 15.620000000000001 l2.76 0 l-3.26 -6.3 l-3.3 7.14 q0.44 -0.38 1.34 -0.6 q1.02 -0.24 2.46 -0.24 z M291.8 7.279999999999999 l-5.26 0 l0 12.72 l-2.12 0 l0 -12.72 l-5.32 0 l0 -2.2 l12.7 0 l0 2.2 z" class="svg-elem-16"></path></g>
			</g>
		</svg>
	