<svg width="122" height="70" viewBox="0 0 122 70" fill="none" xmlns="http://www.w3.org/2000/svg">
<g clip-path="url(#clip0_338_185)">
<path d="M118.793 0H3.20738C1.43599 0 0 1.43954 0 3.21531V66.7847C0 68.5605 1.43599 70 3.20738 70H118.793C120.564 70 122 68.5605 122 66.7847V3.21531C122 1.43954 120.564 0 118.793 0Z" fill="#1A5173"/>
<path d="M48.1164 38.5494C48.1164 44.3404 43.9121 49.8744 34.74 49.8744H16.0142V49.5317H16.3959C17.5011 49.5317 18.4354 48.7207 18.4354 45.4426V16.7961C18.4354 13.8607 17.5011 12.6671 16.3959 12.6671H16.0142V12.3244H32.41C39.121 12.3244 43.9178 14.6659 43.9178 19.1377C43.9178 25.1399 36.865 25.5683 30.5812 28.3781C31.9428 27.9098 33.4696 27.6528 35.1274 27.6528C41.5422 27.6528 48.1221 30.5883 48.1221 38.5094V38.5494H48.1164ZM28.838 12.6671H25.6534C23.574 12.6671 22.5542 13.9463 22.5542 16.7961V36.3792C25.7388 26.2479 39.4172 25.8652 39.4172 19.349C39.4172 14.9229 35.5091 12.6671 28.8437 12.6671H28.838ZM31.0883 49.5374C42.1745 49.5374 43.9975 41.4906 43.9975 38.1725C43.9975 31.9132 40.0496 28.2924 33.7601 28.2924C31.7662 28.2924 30.0628 28.8007 28.6215 29.5717C24.8444 31.6162 22.5486 35.6996 22.5486 40V45.4483C22.5486 48.1725 23.443 49.5374 24.5881 49.5374H31.0883Z" fill="#FCCA3D"/>
<path d="M68.9159 46.3735L69.0127 46.442C67.2125 48.5723 64.5007 49.8801 61.6295 49.8801C56.2345 49.8801 51.8877 45.3284 51.8877 39.6916C51.8877 38.5437 52.0529 37.43 52.3776 36.3849C52.4118 36.3221 52.4403 36.2193 52.4745 36.1222C53.8133 32.2559 57.2485 29.5374 61.4301 29.5374C67.5429 29.5374 69.4058 34.4832 69.7305 36.1222C69.7305 36.185 69.7647 36.3507 69.7647 36.3849H55.3173C55.152 37.2359 55.0552 38.0868 55.0552 39.0063C55.0552 45.2941 58.9462 48.6408 62.9625 48.6408C65.4122 48.6408 67.5714 47.8527 68.9102 46.3792L68.9159 46.3735ZM55.3856 36.1165H66.2383C66.5972 36.1165 66.9219 35.8195 66.9219 35.4597C66.9219 35.3969 66.8877 35.3627 66.8877 35.2941C66.4947 32.9697 64.928 29.7887 61.5269 29.7887C58.5189 29.7887 56.1661 32.3758 55.3799 36.1108L55.3856 36.1165Z" fill="#FCCA3D"/>
<path d="M105.992 49.5089V49.8744H96.341V49.5089H96.7512C97.4348 49.5089 97.9362 48.9149 97.9362 47.59C97.9362 46.6762 97.7083 45.4426 97.1158 43.8036L93.6122 34.3575C93.5666 34.586 93.4755 34.7687 93.3843 34.9058C92.4272 36.4592 89.2882 37.0074 85.9669 37.4186C82.4177 37.8755 80.0478 38.6522 78.595 39.4746C77.3189 40.1599 76.3618 41.3935 75.8662 42.7585L74.6357 45.8595C74.3622 46.5449 74.2255 47.1388 74.2255 47.6871C74.2255 48.7836 74.7268 49.5146 75.5928 49.5146H75.8662V49.8801H70.2661V49.5146H70.5851C72.0891 49.5146 73.314 48.3267 74.3622 45.5911L88.428 9.63452H89.2483L101.628 43.4038C102.904 47.1902 104.22 49.5203 105.678 49.5203H105.997L105.992 49.5089ZM92.9285 33.4438C92.9285 32.8041 92.8374 32.3016 92.7918 32.1645L86.5537 15.3741V15.4198L76.9486 39.9258C78.7717 38.1439 82.5487 37.5557 85.9156 37.0531C89.1458 36.5963 91.6069 36.3678 92.5184 35.1342C92.8374 34.6774 92.9285 34.0377 92.9285 33.4438Z" fill="#FCCA3D"/>
<path d="M30.7806 60.4797C31.0427 60.7881 31.168 61.1822 31.168 61.6676C31.168 62.2901 30.9401 62.7698 30.4787 63.1068C30.0172 63.4437 29.3393 63.6094 28.4449 63.6094H25.1064V56.3392H28.2341C29.043 56.3392 29.6697 56.5049 30.1141 56.8247C30.5584 57.1502 30.7806 57.6128 30.7806 58.2067C30.7806 58.6065 30.6838 58.9492 30.4844 59.229C30.285 59.5088 30.0172 59.7202 29.6697 59.8572C30.1482 59.96 30.5128 60.1656 30.7749 60.474L30.7806 60.4797ZM25.8755 56.9732V59.6116H28.1828C28.7696 59.6116 29.2196 59.4974 29.5387 59.2747C29.8577 59.052 30.0172 58.7207 30.0172 58.2924C30.0172 57.8641 29.8577 57.5385 29.5387 57.3101C29.2196 57.0874 28.7696 56.9732 28.1828 56.9732H25.8755ZM29.9033 62.6442C30.2337 62.4215 30.3989 62.0788 30.3989 61.6048C30.3989 60.6967 29.7438 60.2456 28.4335 60.2456H25.8755V62.9754H28.4335C29.0829 62.9754 29.5728 62.8669 29.9033 62.6442Z" fill="#FCCA3D"/>
<path d="M46.5269 63.6151L44.8691 61.2793C44.6811 61.3021 44.4874 61.3078 44.288 61.3078H42.3396V63.6151H41.5706V56.345H44.2823C45.2052 56.345 45.9344 56.5677 46.4585 57.0074C46.9827 57.4529 47.2447 58.0583 47.2447 58.835C47.2447 59.4004 47.1023 59.8801 46.8174 60.2742C46.5326 60.6682 46.1224 60.9481 45.5926 61.1194L47.3643 63.6094H46.5269V63.6151ZM45.9173 60.1771C46.299 59.8572 46.487 59.4118 46.487 58.8407C46.487 58.2696 46.299 57.8013 45.9173 57.4872C45.5356 57.1731 44.9887 57.0132 44.2709 57.0132H42.3453V60.6568H44.2709C44.9887 60.6568 45.5356 60.4969 45.9173 60.1771Z" fill="#FCCA3D"/>
<path d="M62.8201 61.6734H58.781L57.9094 63.6151H57.1118L60.4274 56.345H61.1851L64.5008 63.6151H63.6918L62.8201 61.6734ZM62.541 61.0509L60.8034 57.1445L59.0602 61.0509H62.541Z" fill="#FCCA3D"/>
<path d="M80.1675 56.345V63.6151H79.5351L74.875 57.7156V63.6151H74.106V56.345H74.7383L79.4098 62.2445V56.345H80.1675Z" fill="#FCCA3D"/>
<path d="M90.0515 56.3449H93.0025C93.7716 56.3449 94.4439 56.4991 95.0306 56.8075C95.6174 57.1159 96.0732 57.5443 96.3979 58.0925C96.7226 58.6408 96.8821 59.269 96.8821 59.9772C96.8821 60.6853 96.7226 61.3135 96.3979 61.8618C96.0732 62.41 95.6174 62.8441 95.0306 63.1468C94.4439 63.4495 93.7659 63.6094 93.0025 63.6094H90.0515V56.3392V56.3449ZM92.9626 62.9469C93.595 62.9469 94.1533 62.8212 94.6319 62.57C95.1104 62.3187 95.4807 61.9703 95.7428 61.5191C96.0048 61.068 96.1358 60.5597 96.1358 59.9772C96.1358 59.3946 96.0048 58.8806 95.7428 58.4352C95.4807 57.9897 95.1104 57.6413 94.6319 57.3844C94.1533 57.1331 93.6007 57.0074 92.9626 57.0074H90.8206V62.9469H92.9626Z" fill="#FCCA3D"/>
</g>
<defs>
<clipPath id="clip0_338_185">
<rect width="122" height="70" fill="white"/>
</clipPath>
</defs>
</svg>
